<?xml version="1.0" encoding="UTF-8"?><svg id="_レイヤー_1" xmlns="http://www.w3.org/2000/svg" viewBox="0 0 557.19 99.76"><defs><style>.cls-1{fill:none;stroke:#172145;stroke-miterlimit:10;stroke-width:11px;}.cls-2{fill:#172145;}</style></defs><path class="cls-2" d="M147.76,41.2l-.06-30.23c0-.48.14-.86.43-1.14.29-.29.67-.43,1.14-.43h3.72c.6,0,1.05.25,1.34.75l7.32,12.62c.45.7.9,1.05,1.36,1.05.46,0,.9-.35,1.31-1.05l7.18-12.65c.29-.51.73-.76,1.33-.77h3.77c.48,0,.86.13,1.14.42.29.29.43.67.43,1.14l.06,30.23c0,.48-.14.86-.43,1.15-.29.29-.67.43-1.14.43h-3.15c-.48,0-.86-.13-1.15-.42s-.43-.67-.43-1.14l-.03-15.07c0-1.94-.31-2.91-.91-2.91-.54,0-1.21.73-2,2.2l-3.8,6.87c-.29.54-.73.81-1.33.81h-1.81c-.6,0-1.05-.26-1.34-.8l-3.83-6.86c-.8-1.46-1.47-2.19-2.01-2.19-.6,0-.9.97-.9,2.91l.03,15.07c0,.48-.14.86-.43,1.15s-.67.43-1.14.43h-3.1c-.48,0-.86-.13-1.15-.42-.29-.29-.43-.67-.43-1.14Z"/><path class="cls-2" d="M188.62,41.12l-.06-30.23c0-.48.14-.86.43-1.14.29-.29.67-.43,1.14-.43l19.6-.04c.48,0,.86.14,1.15.43.29.29.43.67.43,1.14v2.58c0,.48-.14.86-.42,1.15-.29.29-.67.43-1.14.43l-13.4.03c-.48,0-.86.15-1.14.43s-.43.67-.43,1.15v4.62c.01.48.15.86.44,1.14.29.29.67.43,1.15.43l11.97-.02c.48,0,.86.14,1.15.43s.43.67.43,1.14v2.57c0,.48-.14.86-.42,1.15-.29.29-.67.43-1.14.43l-11.97.02c-.48,0-.86.14-1.14.43-.29.29-.43.67-.43,1.15v5.29c.01.48.15.86.44,1.14.29.29.67.43,1.15.43l13.92-.03c.48,0,.86.14,1.15.43.29.29.43.67.43,1.14v2.58c0,.48-.14.86-.42,1.15-.29.29-.67.43-1.14.43l-20.12.04c-.48,0-.86-.14-1.15-.43-.29-.29-.43-.67-.43-1.14Z"/><path class="cls-2" d="M246.08,40.48c-3.27,1.95-7.24,2.92-11.92,2.93-2.26,0-4.36-.47-6.3-1.42-1.94-.95-3.57-2.22-4.87-3.8-2.61-3.17-3.92-7.26-3.93-12.25,0-4.99,1.32-9.13,3.98-12.41,2.79-3.47,6.62-5.21,11.48-5.22,4.23,0,7.95,1.24,11.17,3.75.35.25.54.56.57.93.03.37-.09.72-.38,1.07l-1.86,2.34c-.32.45-.72.67-1.21.67-.49,0-.92-.16-1.26-.48-2.13-1.49-4.47-2.23-7.01-2.23-3.05,0-5.37,1.22-6.96,3.64-1.36,2.13-2.04,4.77-2.03,7.92,0,3.18.73,5.82,2.16,7.91,1.66,2.38,3.95,3.57,6.87,3.56,2.13,0,3.86-.34,5.2-1.01.48-.25.71-.68.71-1.29v-4.01c0-.48-.15-.86-.44-1.14-.29-.29-.67-.43-1.15-.43h-1.91c-.48,0-.86-.14-1.15-.42-.29-.29-.43-.67-.43-1.14v-2.58c0-.48.14-.86.42-1.15.29-.29.67-.43,1.14-.43l8.2-.02c.48,0,.86.14,1.14.43.29.29.43.67.43,1.14l.03,13.88c0,.54-.24.95-.71,1.24Z"/><path class="cls-2" d="M254.48,40.46l11.29-30.3c.25-.67.74-1,1.48-1h3.29c.73,0,1.22.32,1.48.99l11.41,30.26c.25.63.25,1.14-.02,1.53s-.74.57-1.41.58h-3.67c-.73,0-1.21-.34-1.43-1.04l-1.58-4.53c-.22-.7-.7-1.05-1.43-1.05l-10.06.02c-.73,0-1.21.35-1.43,1.05l-1.56,4.53c-.22.7-.7,1.05-1.43,1.05h-3.48c-.67,0-1.14-.18-1.41-.56-.27-.38-.28-.89-.03-1.53ZM266.9,30.18h3.96c.64,0,1.09-.19,1.36-.56.27-.37.29-.87.07-1.5l-1.97-5.77c-.45-1.3-.93-1.95-1.43-1.95-.51,0-1,.65-1.47,1.96l-1.99,5.77c-.22.64-.2,1.14.08,1.5.27.37.74.55,1.41.54Z"/><path class="cls-2" d="M291.86,40.91l-.06-30.23c0-.48.14-.86.43-1.15.29-.29.67-.43,1.14-.43h3.81c.54,0,.97.23,1.29.71l11.62,17.52c.76,1.14,1.4,1.71,1.91,1.71.64,0,.95-.86.95-2.58l-.03-15.83c0-.48.14-.86.43-1.15.29-.29.67-.43,1.14-.43h3.1c.48,0,.86.14,1.15.42.29.29.43.67.43,1.14l.06,30.23c0,.48-.14.86-.43,1.15-.29.29-.67.43-1.14.43h-3.48c-.57,0-1.02-.23-1.34-.71l-11.96-18.24c-.76-1.14-1.4-1.71-1.91-1.71-.64,0-.95.86-.95,2.58l.03,16.55c0,.48-.14.86-.43,1.15-.29.29-.67.43-1.14.43h-3.05c-.48,0-.86-.14-1.15-.42-.29-.29-.43-.67-.43-1.14Z"/><path class="cls-2" d="M329.62,40.84l-.06-30.23c0-.48.14-.86.43-1.14.29-.29.67-.43,1.14-.43l19.6-.04c.48,0,.86.14,1.14.43.29.29.43.67.43,1.14v2.58c0,.48-.14.86-.42,1.15-.29.29-.67.43-1.14.43l-13.4.03c-.48,0-.86.15-1.14.43-.29.29-.43.67-.43,1.15v4.62c0,.48.15.86.44,1.14.29.29.67.43,1.15.43l11.97-.02c.48,0,.86.14,1.15.43s.43.67.43,1.14v2.57c0,.48-.14.86-.42,1.15-.29.29-.67.43-1.14.43l-11.97.02c-.48,0-.86.14-1.14.43-.29.29-.43.67-.43,1.15v5.29c.01.48.16.86.44,1.14.29.29.67.43,1.15.43l13.92-.03c.48,0,.86.14,1.15.43.29.29.43.67.43,1.14v2.58c0,.48-.14.86-.42,1.15-.29.29-.67.43-1.14.43l-20.12.04c-.48,0-.86-.14-1.15-.43-.29-.29-.43-.67-.43-1.14Z"/><path class="cls-2" d="M404.49,40.17c-3.27,1.94-7.24,2.92-11.92,2.93-2.26,0-4.36-.47-6.3-1.42-1.94-.95-3.57-2.22-4.87-3.8-2.61-3.17-3.92-7.26-3.93-12.25-.01-4.99,1.32-9.13,3.98-12.41,2.79-3.47,6.62-5.21,11.48-5.22,4.23,0,7.95,1.24,11.17,3.75.35.25.54.56.57.93.03.37-.09.72-.38,1.07l-1.86,2.34c-.32.45-.72.67-1.21.67-.49,0-.92-.16-1.26-.48-2.13-1.49-4.47-2.23-7.01-2.23-3.05,0-5.37,1.22-6.95,3.64-1.36,2.13-2.04,4.77-2.04,7.92,0,3.18.73,5.82,2.16,7.91,1.66,2.38,3.95,3.57,6.87,3.56,2.13,0,3.86-.34,5.2-1.01.48-.25.71-.68.71-1.29v-4.01c0-.48-.15-.86-.44-1.14-.29-.29-.67-.43-1.15-.43h-1.91c-.48,0-.86-.14-1.15-.42-.29-.29-.43-.67-.43-1.14v-2.58c0-.48.14-.86.42-1.15.29-.29.67-.43,1.14-.43l8.2-.02c.48,0,.86.14,1.14.43.29.29.43.67.43,1.14l.03,13.88c0,.54-.24.96-.71,1.24Z"/><path class="cls-2" d="M428.96,43.03c-2.54,0-4.79-.46-6.75-1.39-1.96-.93-3.59-2.19-4.9-3.78-2.71-3.27-4.07-7.37-4.08-12.29-.01-4.99,1.35-9.13,4.08-12.41,2.85-3.47,6.73-5.21,11.62-5.22,4.93,0,8.83,1.75,11.69,5.27,2.68,3.21,4.02,7.3,4.03,12.29,0,5.02-1.35,9.16-4.08,12.41-2.89,3.41-6.76,5.12-11.62,5.12ZM429.04,37.02c1.62,0,3.01-.34,4.17-1.01,1.16-.67,2.12-1.53,2.88-2.58,1.43-2.07,2.14-4.71,2.13-7.92,0-3.27-.73-5.94-2.16-8.01-1.69-2.35-4.06-3.52-7.11-3.52-3.05,0-5.42,1.22-7.1,3.64-1.43,2.13-2.14,4.77-2.13,7.92,0,3.15.76,5.78,2.26,7.91,1.69,2.38,4.04,3.57,7.06,3.56Z"/><path class="cls-2" d="M466.67,42.95c-2.54,0-4.79-.46-6.75-1.39-1.96-.93-3.59-2.19-4.9-3.78-2.71-3.27-4.07-7.37-4.08-12.29-.01-4.99,1.35-9.13,4.08-12.41,2.85-3.47,6.73-5.21,11.62-5.22,4.93,0,8.83,1.75,11.69,5.27,2.68,3.21,4.02,7.3,4.03,12.29,0,5.02-1.35,9.16-4.08,12.41-2.89,3.41-6.76,5.12-11.62,5.12ZM466.76,36.94c1.62,0,3.01-.34,4.17-1.01,1.16-.67,2.12-1.53,2.88-2.58,1.43-2.07,2.14-4.71,2.13-7.92,0-3.27-.73-5.94-2.16-8.01-1.69-2.35-4.06-3.52-7.11-3.52s-5.42,1.22-7.1,3.64c-1.43,2.13-2.14,4.77-2.13,7.92,0,3.15.76,5.78,2.26,7.91,1.69,2.38,4.04,3.57,7.06,3.56Z"/><path class="cls-2" d="M491.28,40.52l-.06-30.23c0-.48.14-.86.43-1.15.29-.29.67-.43,1.14-.43l9.44-.02c5.4-.01,9.51,1.48,12.31,4.46,2.68,2.85,4.02,6.95,4.03,12.27,0,5.32-1.39,9.43-4.2,12.31-2.81,2.88-6.83,4.33-12.08,4.34l-9.44.02c-.48,0-.86-.14-1.15-.43-.29-.29-.43-.67-.43-1.14ZM499.04,36.36h2.77c3.5-.01,6.08-1,7.77-2.98,1.68-1.97,2.52-4.66,2.51-8.04,0-3.38-.85-6.05-2.54-8.01-1.69-1.95-4.28-2.92-7.78-2.92h-2.77c-.48,0-.86.15-1.14.44-.29.29-.43.67-.43,1.15l.04,18.79c0,.48.15.86.43,1.14.29.29.67.43,1.15.43Z"/><path class="cls-2" d="M538.87,42.71c-2.7,0-5.2-.55-7.49-1.68-2.29-1.12-4.11-2.89-5.45-5.31-.22-.38-.27-.75-.15-1.12.13-.37.38-.66.76-.88l2.57-1.39c.32-.16.67-.24,1.05-.24.38,0,.75.25,1.1.76,1.05,1.43,2.17,2.44,3.34,3.04,1.18.6,2.67.9,4.48.9,1.68,0,2.88-.2,3.58-.6.7-.4,1.19-.87,1.48-1.41s.43-1.22.42-2.03c0-.81-.18-1.52-.53-2.12-.6-.89-2.2-1.71-4.77-2.47-.92-.25-2.02-.53-3.29-.83-1.27-.3-2.46-.7-3.55-1.21-1.1-.51-2.06-1.16-2.89-1.95-1.72-1.65-2.58-3.79-2.59-6.43,0-3.21,1.17-5.72,3.51-7.54,2.09-1.66,4.78-2.49,8.05-2.5,5.18-.01,9.19,1.98,12.03,5.99.48.73.35,1.38-.38,1.95l-2.71,2.01c-.25.22-.56.33-.93.34-.37,0-.64-.12-.81-.36s-.33-.42-.45-.55l-.43-.57c-.99-.98-1.94-1.71-2.87-2.19-.92-.47-1.9-.71-2.93-.71-1.03,0-1.85.07-2.46.2-.6.13-1.14.34-1.62.62-1.05.64-1.57,1.64-1.57,3.01,0,1.14.53,2.03,1.58,2.67,1.15.7,2.7,1.29,4.68,1.78,1.97.49,3.6.99,4.89,1.52s2.43,1.18,3.41,1.97c2.1,1.78,3.16,4.17,3.16,7.19,0,3.46-1.2,6.06-3.61,7.78-2.16,1.56-5.03,2.35-8.63,2.35Z"/><path class="cls-2" d="M168.79,89.77c-2.16.97-4.48,1.46-6.96,1.47s-4.7-.46-6.65-1.39c-1.96-.93-3.59-2.19-4.9-3.78-2.71-3.27-4.07-7.37-4.08-12.29-.01-4.99,1.35-9.13,4.08-12.41,2.85-3.47,6.73-5.21,11.63-5.22,5.21,0,9.3,1.97,12.27,5.94.29.35.38.72.29,1.12-.09.4-.36.72-.81.98l-2.81,1.63c-.25.13-.59.19-1,.19-.41,0-.81-.24-1.19-.71-1.69-2.06-3.93-3.09-6.73-3.09-3.05,0-5.42,1.22-7.1,3.64-1.43,2.13-2.14,4.77-2.13,7.92,0,3.15.76,5.78,2.26,7.91,1.69,2.38,4.03,3.57,7.02,3.56,2.7,0,4.94-1.06,6.72-3.16.41-.48.8-.72,1.17-.72.37,0,.71.08,1.03.24l2.82,1.62c.41.25.67.58.76.98.1.4,0,.77-.28,1.12-1.43,2-3.22,3.5-5.38,4.47Z"/><path class="cls-2" d="M180.14,88.82l-.06-30.23c0-.48.14-.86.43-1.15.29-.29.67-.43,1.14-.43l13.88-.03c3.46,0,6.05.78,7.75,2.37,1.7,1.59,2.56,4.06,2.57,7.43,0,3.43-.89,5.96-2.7,7.59-.7.61-1.44,1.07-2.24,1.39-.79.32-1.29.68-1.5,1.08-.21.4-.17.88.12,1.45l4.79,9.81c.35.67.39,1.21.12,1.62-.27.41-.77.62-1.5.62h-3.72c-.64,0-1.11-.31-1.43-.94l-5.08-11.72c-.32-.63-.8-.95-1.43-.95h-3.39c-.48,0-.86.15-1.14.44-.29.29-.43.67-.43,1.15l.02,10.49c0,.48-.14.86-.43,1.15s-.67.43-1.14.43h-3.05c-.48,0-.86-.13-1.15-.42-.29-.29-.43-.67-.43-1.14ZM187.87,70.97h6.82c1.43-.02,2.56-.33,3.38-.95.82-.62,1.24-1.69,1.23-3.2s-.42-2.57-1.25-3.19c-.83-.62-1.96-.93-3.39-.92h-6.82c-.48.01-.86.16-1.14.45-.29.29-.43.67-.43,1.15v5.1c.01.48.15.86.44,1.14.29.29.67.43,1.15.43Z"/><path class="cls-2" d="M211.18,88.76l-.06-30.23c0-.48.14-.86.43-1.15s.67-.43,1.14-.43l19.6-.04c.48,0,.86.14,1.14.43.29.29.43.67.43,1.14v2.58c0,.48-.14.86-.42,1.15-.29.29-.67.43-1.14.43l-13.4.03c-.48,0-.86.15-1.14.43-.29.29-.43.67-.43,1.14v4.62c0,.48.15.86.44,1.14.29.29.67.43,1.15.43l11.97-.02c.48,0,.86.14,1.15.43.29.29.43.67.43,1.14v2.57c0,.48-.14.86-.42,1.15-.29.29-.67.43-1.14.43l-11.97.02c-.48,0-.86.14-1.14.43-.28.29-.43.67-.43,1.14v5.29c.01.48.16.86.44,1.14.29.29.67.43,1.15.43l13.92-.03c.48,0,.86.14,1.15.43.29.29.43.67.43,1.14v2.58c0,.48-.14.86-.42,1.15-.29.29-.67.43-1.14.43l-20.12.04c-.48,0-.86-.14-1.15-.43s-.43-.67-.43-1.14Z"/><path class="cls-2" d="M237.69,88.18l11.29-30.3c.25-.67.74-1,1.48-1h3.29c.73,0,1.22.32,1.48.99l11.41,30.26c.25.64.25,1.14-.02,1.53-.27.38-.74.57-1.41.58h-3.67c-.73,0-1.21-.34-1.43-1.04l-1.58-4.53c-.22-.7-.7-1.05-1.43-1.05l-10.06.02c-.73,0-1.21.35-1.43,1.05l-1.56,4.53c-.22.7-.7,1.05-1.43,1.05h-3.48c-.67,0-1.14-.18-1.41-.56-.27-.38-.28-.89-.03-1.53ZM250.11,77.9h3.96c.64,0,1.09-.19,1.36-.56.27-.37.29-.87.07-1.5l-1.97-5.77c-.45-1.3-.93-1.95-1.43-1.95-.51,0-1,.65-1.47,1.96l-1.99,5.77c-.22.64-.2,1.14.08,1.5.27.37.74.55,1.41.54Z"/><path class="cls-2" d="M276.65,88.63l-.05-24.51c0-.48-.14-.86-.43-1.14-.29-.29-.67-.43-1.14-.43h-6.68c-.48.01-.86-.13-1.15-.41-.29-.29-.43-.67-.43-1.14v-2.58c0-.48.14-.86.42-1.15.29-.29.67-.43,1.14-.43l22.7-.04c.48,0,.86.14,1.14.43.29.29.43.67.43,1.14v2.58c0,.48-.14.86-.42,1.15-.29.29-.67.43-1.14.43h-6.63c-.48.01-.86.16-1.14.44-.28.29-.43.67-.43,1.15l.05,24.51c0,.48-.14.86-.43,1.15-.29.29-.67.43-1.14.43h-3.1c-.48,0-.86-.13-1.14-.42-.29-.29-.43-.67-.43-1.14Z"/><path class="cls-2" d="M298.25,88.58l-.06-30.23c0-.48.14-.86.43-1.15.29-.29.67-.43,1.14-.43h3.05c.48,0,.86.13,1.15.42.29.29.43.67.43,1.14l.06,30.23c0,.48-.14.86-.43,1.15-.29.29-.67.43-1.14.43h-3.05c-.48,0-.86-.13-1.14-.42-.29-.29-.43-.67-.43-1.14Z"/><path class="cls-2" d="M325.86,90.91c-2.54,0-4.79-.46-6.75-1.39-1.96-.93-3.59-2.19-4.89-3.78-2.71-3.27-4.07-7.37-4.08-12.29,0-4.99,1.35-9.13,4.08-12.41,2.85-3.47,6.73-5.21,11.62-5.22,4.93,0,8.83,1.75,11.69,5.27,2.68,3.21,4.02,7.3,4.03,12.29,0,5.02-1.35,9.16-4.08,12.41-2.89,3.41-6.76,5.12-11.62,5.13ZM325.95,84.91c1.62,0,3.01-.34,4.17-1.01,1.16-.67,2.12-1.53,2.88-2.58,1.43-2.07,2.14-4.71,2.13-7.92,0-3.27-.73-5.94-2.16-8.01-1.69-2.35-4.06-3.52-7.11-3.52-3.05,0-5.42,1.22-7.1,3.64-1.43,2.13-2.14,4.77-2.13,7.92,0,3.15.76,5.79,2.26,7.91,1.69,2.38,4.04,3.57,7.06,3.56Z"/><path class="cls-2" d="M346.41,88.49l-.06-30.23c0-.48.14-.86.43-1.15.29-.29.67-.43,1.14-.43h3.81c.54,0,.97.23,1.29.71l11.62,17.52c.76,1.14,1.4,1.71,1.91,1.71.64,0,.95-.86.95-2.58l-.03-15.83c0-.48.14-.86.43-1.14.29-.29.67-.43,1.14-.43h3.1c.48,0,.86.13,1.15.42.29.29.43.67.43,1.14l.06,30.23c0,.48-.14.86-.43,1.15-.29.29-.67.43-1.14.43h-3.48c-.57,0-1.02-.23-1.34-.71l-11.96-18.24c-.76-1.14-1.4-1.71-1.91-1.71-.64,0-.95.86-.95,2.58l.03,16.55c0,.48-.14.86-.43,1.14-.29.29-.67.43-1.14.43h-3.05c-.48,0-.86-.13-1.14-.42-.29-.29-.43-.67-.43-1.14Z"/><path class="cls-2" d="M402.06,90.67c-2.7,0-5.2-.55-7.49-1.68-2.29-1.12-4.11-2.89-5.45-5.31-.22-.38-.27-.75-.15-1.12.13-.37.38-.66.76-.88l2.57-1.39c.32-.16.67-.24,1.05-.24.38,0,.75.25,1.1.76,1.05,1.43,2.17,2.44,3.34,3.04,1.18.6,2.67.9,4.48.9,1.68,0,2.88-.2,3.58-.6.7-.4,1.19-.87,1.48-1.41.29-.54.43-1.22.42-2.03,0-.81-.18-1.52-.53-2.12-.61-.89-2.2-1.71-4.77-2.47-.92-.25-2.02-.53-3.29-.83-1.27-.3-2.46-.7-3.55-1.21-1.1-.51-2.06-1.16-2.89-1.95-1.72-1.65-2.58-3.79-2.59-6.43,0-3.21,1.17-5.72,3.51-7.54,2.09-1.66,4.78-2.49,8.05-2.5,5.18,0,9.19,1.99,12.03,5.99.48.73.35,1.38-.38,1.96l-2.71,2.01c-.25.22-.56.33-.93.34-.37,0-.64-.12-.81-.36-.17-.24-.33-.42-.45-.55l-.43-.57c-.99-.98-1.94-1.71-2.86-2.19-.92-.47-1.9-.71-2.93-.71-1.03,0-1.85.07-2.46.2-.6.13-1.14.34-1.62.62-1.05.64-1.57,1.64-1.57,3.01,0,1.14.53,2.03,1.58,2.67,1.15.7,2.7,1.29,4.68,1.78,1.97.49,3.6.99,4.89,1.52,1.29.52,2.43,1.18,3.41,1.97,2.1,1.78,3.16,4.17,3.16,7.19,0,3.46-1.2,6.06-3.61,7.78-2.16,1.56-5.03,2.35-8.63,2.35Z"/><path class="cls-2" d="M427.42,88.33l-.05-24.51c0-.48-.14-.86-.43-1.14-.29-.29-.67-.43-1.14-.43h-6.68c-.48.01-.86-.13-1.15-.41-.29-.29-.43-.67-.43-1.14v-2.58c0-.48.14-.86.42-1.15.29-.29.67-.43,1.14-.43l22.7-.04c.48,0,.86.14,1.14.43.29.29.43.67.43,1.14v2.58c0,.48-.14.86-.42,1.15s-.67.43-1.14.43h-6.63c-.48.01-.86.16-1.14.45-.28.29-.43.67-.43,1.15l.05,24.51c0,.48-.14.86-.43,1.15-.29.29-.67.43-1.14.43h-3.1c-.48,0-.86-.13-1.14-.42-.29-.29-.43-.67-.43-1.14Z"/><path class="cls-2" d="M473.61,77.27c.02,8.77-4.3,13.17-12.94,13.19-8.68.02-13.03-4.36-13.04-13.13l-.04-19.26c0-.48.14-.86.43-1.15.29-.29.67-.43,1.14-.43h3.1c.48,0,.86.13,1.15.42s.43.67.43,1.14l.04,18.93c.01,4.99,2.27,7.48,6.79,7.47,2.45,0,4.18-.68,5.19-2.04,1.01-1.35,1.52-3.17,1.51-5.46l-.04-18.93c0-.48.14-.86.43-1.15s.67-.43,1.14-.43h3.1c.48,0,.86.13,1.15.42.29.29.43.67.43,1.14l.04,19.26Z"/><path class="cls-2" d="M480.11,88.23l-.06-30.23c0-.48.14-.86.43-1.15.29-.29.67-.43,1.14-.43l9.44-.02c5.4-.01,9.51,1.48,12.31,4.46,2.68,2.86,4.02,6.95,4.03,12.27.01,5.33-1.39,9.43-4.2,12.31s-6.83,4.33-12.08,4.34l-9.44.02c-.48,0-.86-.14-1.14-.43-.29-.29-.43-.67-.43-1.14ZM487.88,84.06h2.77c3.5-.01,6.08-1,7.77-2.98,1.68-1.97,2.52-4.65,2.51-8.04,0-3.38-.86-6.05-2.54-8.01-1.69-1.95-4.28-2.92-7.78-2.92h-2.77c-.48,0-.86.15-1.14.44-.29.29-.43.67-.43,1.15l.04,18.79c0,.48.14.86.43,1.14.29.29.67.43,1.15.43Z"/><path class="cls-2" d="M512.68,88.16l-.06-30.23c0-.48.14-.86.43-1.14.29-.29.67-.43,1.14-.43h3.05c.48,0,.86.13,1.15.42.29.29.43.67.43,1.14l.06,30.23c0,.48-.14.86-.43,1.15-.29.29-.67.43-1.14.43h-3.05c-.48,0-.86-.13-1.14-.42-.29-.29-.43-.67-.43-1.14Z"/><path class="cls-2" d="M539.82,90.49c-2.54,0-4.79-.46-6.75-1.39-1.96-.93-3.59-2.19-4.89-3.78-2.71-3.27-4.07-7.37-4.08-12.29,0-4.99,1.35-9.12,4.08-12.41,2.85-3.47,6.73-5.21,11.62-5.22,4.93,0,8.83,1.75,11.69,5.27,2.68,3.21,4.02,7.3,4.03,12.29,0,5.02-1.35,9.16-4.08,12.41-2.89,3.41-6.76,5.12-11.62,5.13ZM539.9,84.48c1.62,0,3.01-.34,4.17-1.01,1.16-.67,2.12-1.53,2.88-2.58,1.43-2.07,2.14-4.71,2.13-7.92,0-3.27-.73-5.94-2.16-8.01-1.69-2.35-4.06-3.52-7.11-3.51-3.05,0-5.42,1.22-7.1,3.64-1.43,2.13-2.14,4.77-2.13,7.92,0,3.15.76,5.79,2.26,7.91,1.69,2.38,4.04,3.57,7.06,3.56Z"/><rect class="cls-1" x="32.71" y="11" width="76.75" height="76.75" rx="16.2" ry="16.2"/><rect class="cls-2" x="51.09" y="28.71" width="39.99" height="41.33" rx="6.48" ry="6.48"/><line class="cls-1" x1="30" y1="48.1" y2="48.1"/></svg>